  0
SECTION
  2
HEADER
  9
$EXTMIN
 10
-0.383000
 20
-0.203000
  9
$EXTMAX
 10
0.455000
 20
0.655000
  9
$LIMMIN
 10
-0.383000
 20
-0.203000
  9
$LIMMAX
 10
0.455000
 20
0.655000
  9
$FILLMODE
 70
  1
  0
ENDSEC
  0
SECTION
  2
TABLES
  0
TABLE
  2
LTYPE
 70
  1
  0
LTYPE
  2
CONTINUOUS
 70
 64
  3
Solid line
 72
 65
 73
  0
 40
0.0
  0
ENDTAB
  0
TABLE
  2
LAYER
 70
 1
  0
LAYER
  2
0
 70
  0
 62
7
  6
CONTINUOUS
  0
LAYER
  2
gg1
 70
  0
 62
1
  6
CONTINUOUS
  0
ENDTAB
  0
TABLE
  2
STYLE
 70
  1
  0
STYLE
  2
STANDARD
 70
  0
 40
0.0
 41
1.0
 50
0.0
 71
  0
 42
0.2
  3
txt
  4

  0
ENDTAB
  0
ENDSEC
  0
SECTION
  2
BLOCKS
  0
BLOCK
  8
0
  2
D10
 70
64
 10
0.0
 20
0.0
  3
D10
  0
CIRCLE
  8
0
 10
0.000000
 20
0.000000
 40
0.005000
 0
ENDBLK
  8
0
  0
BLOCK
  8
0
  2
D11
 70
64
 10
0.0
 20
0.0
  3
D11
  0
CIRCLE
  8
0
 10
0.000000
 20
0.000000
 40
0.002500
 0
ENDBLK
  8
0
  0
BLOCK
  8
0
  2
D12
 70
64
 10
0.0
 20
0.0
  3
D12
  0
CIRCLE
  8
0
 10
0.000000
 20
0.000000
 40
0.003000
 0
ENDBLK
  8
0
  0
ENDSEC
  0
SECTION
  2
ENTITIES
  0
POLYLINE
  8
gg1
 62
1
 40
0.000000
 41
0.000000
 66
  1
  0
VERTEX
  8
gg1
 10
0.450000
 20
-0.110000
  0
VERTEX
  8
gg1
 10
0.450000
 20
-0.010000
  0
SEQEND
  8
gg1
  0
POLYLINE
  8
gg1
 62
1
 40
0.000000
 41
0.000000
 66
  1
  0
VERTEX
  8
gg1
 10
0.000000
 20
-0.110000
  0
VERTEX
  8
gg1
 10
0.000000
 20
-0.010000
  0
SEQEND
  8
gg1
  0
POLYLINE
  8
gg1
 62
1
 40
0.000000
 41
0.000000
 66
  1
  0
VERTEX
  8
gg1
 10
0.225000
 20
-0.100000
  0
VERTEX
  8
gg1
 10
0.450000
 20
-0.100000
  0
SEQEND
  8
gg1
  0
POLYLINE
  8
gg1
 62
1
 40
0.000000
 41
0.000000
 66
  1
  0
VERTEX
  8
gg1
 10
0.000000
 20
-0.100000
  0
VERTEX
  8
gg1
 10
0.225000
 20
-0.100000
  0
SEQEND
  8
gg1
  0
POLYLINE
  8
gg1
 62
1
 40
0.000000
 41
0.000000
 66
  1
  0
VERTEX
  8
gg1
 10
0.390000
 20
-0.080000
  0
VERTEX
  8
gg1
 10
0.450000
 20
-0.100000
  0
SEQEND
  8
gg1
  0
POLYLINE
  8
gg1
 62
1
 40
0.000000
 41
0.000000
 66
  1
  0
VERTEX
  8
gg1
 10
0.390000
 20
-0.120000
  0
VERTEX
  8
gg1
 10
0.450000
 20
-0.100000
  0
SEQEND
  8
gg1
  0
POLYLINE
  8
gg1
 62
1
 40
0.000000
 41
0.000000
 66
  1
  0
VERTEX
  8
gg1
 10
0.000000
 20
-0.100000
  0
VERTEX
  8
gg1
 10
0.060000
 20
-0.120000
  0
SEQEND
  8
gg1
  0
POLYLINE
  8
gg1
 62
1
 40
0.000000
 41
0.000000
 66
  1
  0
VERTEX
  8
gg1
 10
0.000000
 20
-0.100000
  0
VERTEX
  8
gg1
 10
0.060000
 20
-0.080000
  0
SEQEND
  8
gg1
  0
POLYLINE
  8
gg1
 62
1
 40
0.000000
 41
0.000000
 66
  1
  0
VERTEX
  8
gg1
 10
-0.355000
 20
0.650000
  0
VERTEX
  8
gg1
 10
-0.010000
 20
0.650000
  0
SEQEND
  8
gg1
  0
POLYLINE
  8
gg1
 62
1
 40
0.000000
 41
0.000000
 66
  1
  0
VERTEX
  8
gg1
 10
-0.355000
 20
0.000000
  0
VERTEX
  8
gg1
 10
-0.010000
 20
0.000000
  0
SEQEND
  8
gg1
  0
POLYLINE
  8
gg1
 62
1
 40
0.000000
 41
0.000000
 66
  1
  0
VERTEX
  8
gg1
 10
-0.345000
 20
0.475900
  0
VERTEX
  8
gg1
 10
-0.345000
 20
0.650000
  0
SEQEND
  8
gg1
  0
POLYLINE
  8
gg1
 62
1
 40
0.000000
 41
0.000000
 66
  1
  0
VERTEX
  8
gg1
 10
-0.345000
 20
0.000000
  0
VERTEX
  8
gg1
 10
-0.345000
 20
0.134000
  0
SEQEND
  8
gg1
  0
POLYLINE
  8
gg1
 62
1
 40
0.000000
 41
0.000000
 66
  1
  0
VERTEX
  8
gg1
 10
-0.365000
 20
0.590000
  0
VERTEX
  8
gg1
 10
-0.345000
 20
0.650000
  0
VERTEX
  8
gg1
 10
-0.325000
 20
0.590000
  0
SEQEND
  8
gg1
  0
POLYLINE
  8
gg1
 62
1
 40
0.000000
 41
0.000000
 66
  1
  0
VERTEX
  8
gg1
 10
-0.345000
 20
0.000000
  0
VERTEX
  8
gg1
 10
-0.325000
 20
0.060000
  0
SEQEND
  8
gg1
  0
POLYLINE
  8
gg1
 62
1
 40
0.000000
 41
0.000000
 66
  1
  0
VERTEX
  8
gg1
 10
-0.365000
 20
0.060000
  0
VERTEX
  8
gg1
 10
-0.345000
 20
0.000000
  0
SEQEND
  8
gg1
  0
POLYLINE
  8
gg1
 62
1
 40
0.000000
 41
0.000000
 66
  1
  0
VERTEX
  8
gg1
 10
0.000000
 20
0.000000
  0
VERTEX
  8
gg1
 10
0.000000
 20
0.650000
  0
VERTEX
  8
gg1
 10
0.450000
 20
0.650000
  0
SEQEND
  8
gg1
  0
POLYLINE
  8
gg1
 62
1
 40
0.000000
 41
0.000000
 66
  1
  0
VERTEX
  8
gg1
 10
0.450000
 20
0.000000
  0
VERTEX
  8
gg1
 10
0.450000
 20
0.650000
  0
SEQEND
  8
gg1
  0
POLYLINE
  8
gg1
 62
1
 40
0.000000
 41
0.000000
 66
  1
  0
VERTEX
  8
gg1
 10
0.000000
 20
0.000000
  0
VERTEX
  8
gg1
 10
0.450000
 20
0.000000
  0
SEQEND
  8
gg1
  0
POLYLINE
  8
gg1
 62
1
 40
0.000000
 41
0.000000
 66
  1
  0
VERTEX
  8
gg1
 10
0.055000
 20
0.050000
  0
VERTEX
  8
gg1
 10
0.095000
 20
0.050000
  0
SEQEND
  8
gg1
  0
POLYLINE
  8
gg1
 62
1
 40
0.000000
 41
0.000000
 66
  1
  0
VERTEX
  8
gg1
 10
0.075000
 20
0.030000
  0
VERTEX
  8
gg1
 10
0.075000
 20
0.070000
  0
SEQEND
  8
gg1
  0
POLYLINE
  8
gg1
 62
1
 40
0.000000
 41
0.000000
 66
  1
  0
VERTEX
  8
gg1
 10
0.155000
 20
0.050000
  0
VERTEX
  8
gg1
 10
0.195000
 20
0.050000
  0
SEQEND
  8
gg1
  0
POLYLINE
  8
gg1
 62
1
 40
0.000000
 41
0.000000
 66
  1
  0
VERTEX
  8
gg1
 10
0.175000
 20
0.030000
  0
VERTEX
  8
gg1
 10
0.175000
 20
0.070000
  0
SEQEND
  8
gg1
  0
POLYLINE
  8
gg1
 62
1
 40
0.000000
 41
0.000000
 66
  1
  0
VERTEX
  8
gg1
 10
0.255000
 20
0.050000
  0
VERTEX
  8
gg1
 10
0.295000
 20
0.050000
  0
SEQEND
  8
gg1
  0
POLYLINE
  8
gg1
 62
1
 40
0.000000
 41
0.000000
 66
  1
  0
VERTEX
  8
gg1
 10
0.275000
 20
0.030000
  0
VERTEX
  8
gg1
 10
0.275000
 20
0.070000
  0
SEQEND
  8
gg1
  0
POLYLINE
  8
gg1
 62
1
 40
0.000000
 41
0.000000
 66
  1
  0
VERTEX
  8
gg1
 10
0.355000
 20
0.050000
  0
VERTEX
  8
gg1
 10
0.395000
 20
0.050000
  0
SEQEND
  8
gg1
  0
POLYLINE
  8
gg1
 62
1
 40
0.000000
 41
0.000000
 66
  1
  0
VERTEX
  8
gg1
 10
0.375000
 20
0.030000
  0
VERTEX
  8
gg1
 10
0.375000
 20
0.070000
  0
SEQEND
  8
gg1
  0
POLYLINE
  8
gg1
 62
1
 40
0.000000
 41
0.000000
 66
  1
  0
VERTEX
  8
gg1
 10
0.203800
 20
0.327400
  0
VERTEX
  8
gg1
 10
0.218800
 20
0.327400
  0
SEQEND
  8
gg1
  0
POLYLINE
  8
gg1
 62
1
 40
0.000000
 41
0.000000
 66
  1
  0
VERTEX
  8
gg1
 10
0.211300
 20
0.319900
  0
VERTEX
  8
gg1
 10
0.211300
 20
0.334900
  0
SEQEND
  8
gg1
  0
POLYLINE
  8
gg1
 62
1
 40
0.000000
 41
0.000000
 66
  1
  0
VERTEX
  8
gg1
 10
0.203800
 20
0.382600
  0
VERTEX
  8
gg1
 10
0.218800
 20
0.382600
  0
SEQEND
  8
gg1
  0
POLYLINE
  8
gg1
 62
1
 40
0.000000
 41
0.000000
 66
  1
  0
VERTEX
  8
gg1
 10
0.211300
 20
0.375100
  0
VERTEX
  8
gg1
 10
0.211300
 20
0.390100
  0
SEQEND
  8
gg1
  0
POLYLINE
  8
gg1
 62
1
 40
0.000000
 41
0.000000
 66
  1
  0
VERTEX
  8
gg1
 10
0.241200
 20
0.382600
  0
VERTEX
  8
gg1
 10
0.256200
 20
0.382600
  0
SEQEND
  8
gg1
  0
POLYLINE
  8
gg1
 62
1
 40
0.000000
 41
0.000000
 66
  1
  0
VERTEX
  8
gg1
 10
0.248700
 20
0.375100
  0
VERTEX
  8
gg1
 10
0.248700
 20
0.390100
  0
SEQEND
  8
gg1
  0
POLYLINE
  8
gg1
 62
1
 40
0.000000
 41
0.000000
 66
  1
  0
VERTEX
  8
gg1
 10
0.241200
 20
0.327400
  0
VERTEX
  8
gg1
 10
0.256200
 20
0.327400
  0
SEQEND
  8
gg1
  0
POLYLINE
  8
gg1
 62
1
 40
0.000000
 41
0.000000
 66
  1
  0
VERTEX
  8
gg1
 10
0.248700
 20
0.319900
  0
VERTEX
  8
gg1
 10
0.248700
 20
0.334900
  0
SEQEND
  8
gg1
  0
POLYLINE
  8
gg1
 62
1
 40
0.000000
 41
0.000000
 66
  1
  0
VERTEX
  8
gg1
 10
0.222500
 20
0.355000
  0
VERTEX
  8
gg1
 10
0.237500
 20
0.355000
  0
SEQEND
  8
gg1
  0
POLYLINE
  8
gg1
 62
1
 40
0.000000
 41
0.000000
 66
  1
  0
VERTEX
  8
gg1
 10
0.230000
 20
0.347500
  0
VERTEX
  8
gg1
 10
0.230000
 20
0.362500
  0
SEQEND
  8
gg1
  0
POLYLINE
  8
gg1
 62
1
 40
0.000000
 41
0.000000
 66
  1
  0
VERTEX
  8
gg1
 10
0.378500
 20
0.340000
  0
VERTEX
  8
gg1
 10
0.393500
 20
0.340000
  0
SEQEND
  8
gg1
  0
POLYLINE
  8
gg1
 62
1
 40
0.000000
 41
0.000000
 66
  1
  0
VERTEX
  8
gg1
 10
0.386000
 20
0.332500
  0
VERTEX
  8
gg1
 10
0.386000
 20
0.347500
  0
SEQEND
  8
gg1
  0
POLYLINE
  8
gg1
 62
1
 40
0.000000
 41
0.000000
 66
  1
  0
VERTEX
  8
gg1
 10
0.073500
 20
0.489000
  0
VERTEX
  8
gg1
 10
0.088500
 20
0.489000
  0
SEQEND
  8
gg1
  0
POLYLINE
  8
gg1
 62
1
 40
0.000000
 41
0.000000
 66
  1
  0
VERTEX
  8
gg1
 10
0.081000
 20
0.481500
  0
VERTEX
  8
gg1
 10
0.081000
 20
0.496500
  0
SEQEND
  8
gg1
  0
POLYLINE
  8
gg1
 62
1
 40
0.000000
 41
0.000000
 66
  1
  0
VERTEX
  8
gg1
 10
0.378500
 20
0.407000
  0
VERTEX
  8
gg1
 10
0.393500
 20
0.407000
  0
SEQEND
  8
gg1
  0
POLYLINE
  8
gg1
 62
1
 40
0.000000
 41
0.000000
 66
  1
  0
VERTEX
  8
gg1
 10
0.386000
 20
0.399500
  0
VERTEX
  8
gg1
 10
0.386000
 20
0.414500
  0
SEQEND
  8
gg1
  0
POLYLINE
  8
gg1
 62
1
 40
0.000000
 41
0.000000
 66
  1
  0
VERTEX
  8
gg1
 10
0.374500
 20
0.235000
  0
VERTEX
  8
gg1
 10
0.389500
 20
0.235000
  0
SEQEND
  8
gg1
  0
POLYLINE
  8
gg1
 62
1
 40
0.000000
 41
0.000000
 66
  1
  0
VERTEX
  8
gg1
 10
0.382000
 20
0.227500
  0
VERTEX
  8
gg1
 10
0.382000
 20
0.242500
  0
SEQEND
  8
gg1
  0
POLYLINE
  8
gg1
 62
1
 40
0.000000
 41
0.000000
 66
  1
  0
VERTEX
  8
gg1
 10
0.374500
 20
0.206000
  0
VERTEX
  8
gg1
 10
0.389500
 20
0.206000
  0
SEQEND
  8
gg1
  0
POLYLINE
  8
gg1
 62
1
 40
0.000000
 41
0.000000
 66
  1
  0
VERTEX
  8
gg1
 10
0.382000
 20
0.198500
  0
VERTEX
  8
gg1
 10
0.382000
 20
0.213500
  0
SEQEND
  8
gg1
  0
POLYLINE
  8
gg1
 62
1
 40
0.000000
 41
0.000000
 66
  1
  0
VERTEX
  8
gg1
 10
0.374500
 20
0.148000
  0
VERTEX
  8
gg1
 10
0.389500
 20
0.148000
  0
SEQEND
  8
gg1
  0
POLYLINE
  8
gg1
 62
1
 40
0.000000
 41
0.000000
 66
  1
  0
VERTEX
  8
gg1
 10
0.382000
 20
0.140500
  0
VERTEX
  8
gg1
 10
0.382000
 20
0.155500
  0
SEQEND
  8
gg1
  0
POLYLINE
  8
gg1
 62
1
 40
0.000000
 41
0.000000
 66
  1
  0
VERTEX
  8
gg1
 10
0.374500
 20
0.119000
  0
VERTEX
  8
gg1
 10
0.389500
 20
0.119000
  0
SEQEND
  8
gg1
  0
POLYLINE
  8
gg1
 62
1
 40
0.000000
 41
0.000000
 66
  1
  0
VERTEX
  8
gg1
 10
0.382000
 20
0.111500
  0
VERTEX
  8
gg1
 10
0.382000
 20
0.126500
  0
SEQEND
  8
gg1
  0
POLYLINE
  8
gg1
 62
1
 40
0.000000
 41
0.000000
 66
  1
  0
VERTEX
  8
gg1
 10
0.374500
 20
0.177000
  0
VERTEX
  8
gg1
 10
0.389500
 20
0.177000
  0
SEQEND
  8
gg1
  0
POLYLINE
  8
gg1
 62
1
 40
0.000000
 41
0.000000
 66
  1
  0
VERTEX
  8
gg1
 10
0.382000
 20
0.169500
  0
VERTEX
  8
gg1
 10
0.382000
 20
0.184500
  0
SEQEND
  8
gg1
  0
POLYLINE
  8
gg1
 62
1
 40
0.000000
 41
0.000000
 66
  1
  0
VERTEX
  8
gg1
 10
0.060500
 20
0.127000
  0
VERTEX
  8
gg1
 10
0.075500
 20
0.127000
  0
SEQEND
  8
gg1
  0
POLYLINE
  8
gg1
 62
1
 40
0.000000
 41
0.000000
 66
  1
  0
VERTEX
  8
gg1
 10
0.068000
 20
0.119500
  0
VERTEX
  8
gg1
 10
0.068000
 20
0.134500
  0
SEQEND
  8
gg1
  0
POLYLINE
  8
gg1
 62
1
 40
0.000000
 41
0.000000
 66
  1
  0
VERTEX
  8
gg1
 10
0.060500
 20
0.415900
  0
VERTEX
  8
gg1
 10
0.075500
 20
0.415900
  0
SEQEND
  8
gg1
  0
POLYLINE
  8
gg1
 62
1
 40
0.000000
 41
0.000000
 66
  1
  0
VERTEX
  8
gg1
 10
0.068000
 20
0.408400
  0
VERTEX
  8
gg1
 10
0.068000
 20
0.423400
  0
SEQEND
  8
gg1
  0
POLYLINE
  8
gg1
 62
1
 40
0.000000
 41
0.000000
 66
  1
  0
VERTEX
  8
gg1
 10
0.060500
 20
0.271400
  0
VERTEX
  8
gg1
 10
0.075500
 20
0.271400
  0
SEQEND
  8
gg1
  0
POLYLINE
  8
gg1
 62
1
 40
0.000000
 41
0.000000
 66
  1
  0
VERTEX
  8
gg1
 10
0.068000
 20
0.263900
  0
VERTEX
  8
gg1
 10
0.068000
 20
0.278900
  0
SEQEND
  8
gg1
  0
POLYLINE
  8
gg1
 62
1
 40
0.000000
 41
0.000000
 66
  1
  0
VERTEX
  8
gg1
 10
0.060500
 20
0.452000
  0
VERTEX
  8
gg1
 10
0.075500
 20
0.452000
  0
SEQEND
  8
gg1
  0
POLYLINE
  8
gg1
 62
1
 40
0.000000
 41
0.000000
 66
  1
  0
VERTEX
  8
gg1
 10
0.068000
 20
0.444500
  0
VERTEX
  8
gg1
 10
0.068000
 20
0.459500
  0
SEQEND
  8
gg1
  0
POLYLINE
  8
gg1
 62
1
 40
0.000000
 41
0.000000
 66
  1
  0
VERTEX
  8
gg1
 10
0.280500
 20
0.449000
  0
VERTEX
  8
gg1
 10
0.295500
 20
0.449000
  0
SEQEND
  8
gg1
  0
POLYLINE
  8
gg1
 62
1
 40
0.000000
 41
0.000000
 66
  1
  0
VERTEX
  8
gg1
 10
0.288000
 20
0.441500
  0
VERTEX
  8
gg1
 10
0.288000
 20
0.456500
  0
SEQEND
  8
gg1
  0
POLYLINE
  8
gg1
 62
1
 40
0.000000
 41
0.000000
 66
  1
  0
VERTEX
  8
gg1
 10
0.060500
 20
0.379800
  0
VERTEX
  8
gg1
 10
0.075500
 20
0.379800
  0
SEQEND
  8
gg1
  0
POLYLINE
  8
gg1
 62
1
 40
0.000000
 41
0.000000
 66
  1
  0
VERTEX
  8
gg1
 10
0.068000
 20
0.372300
  0
VERTEX
  8
gg1
 10
0.068000
 20
0.387300
  0
SEQEND
  8
gg1
  0
POLYLINE
  8
gg1
 62
1
 40
0.000000
 41
0.000000
 66
  1
  0
VERTEX
  8
gg1
 10
0.060500
 20
0.343700
  0
VERTEX
  8
gg1
 10
0.075500
 20
0.343700
  0
SEQEND
  8
gg1
  0
POLYLINE
  8
gg1
 62
1
 40
0.000000
 41
0.000000
 66
  1
  0
VERTEX
  8
gg1
 10
0.068000
 20
0.336200
  0
VERTEX
  8
gg1
 10
0.068000
 20
0.351200
  0
SEQEND
  8
gg1
  0
POLYLINE
  8
gg1
 62
1
 40
0.000000
 41
0.000000
 66
  1
  0
VERTEX
  8
gg1
 10
0.060500
 20
0.307600
  0
VERTEX
  8
gg1
 10
0.075500
 20
0.307600
  0
SEQEND
  8
gg1
  0
POLYLINE
  8
gg1
 62
1
 40
0.000000
 41
0.000000
 66
  1
  0
VERTEX
  8
gg1
 10
0.068000
 20
0.300100
  0
VERTEX
  8
gg1
 10
0.068000
 20
0.315100
  0
SEQEND
  8
gg1
  0
POLYLINE
  8
gg1
 62
1
 40
0.000000
 41
0.000000
 66
  1
  0
VERTEX
  8
gg1
 10
0.060500
 20
0.235300
  0
VERTEX
  8
gg1
 10
0.075500
 20
0.235300
  0
SEQEND
  8
gg1
  0
POLYLINE
  8
gg1
 62
1
 40
0.000000
 41
0.000000
 66
  1
  0
VERTEX
  8
gg1
 10
0.068000
 20
0.227800
  0
VERTEX
  8
gg1
 10
0.068000
 20
0.242800
  0
SEQEND
  8
gg1
  0
POLYLINE
  8
gg1
 62
1
 40
0.000000
 41
0.000000
 66
  1
  0
VERTEX
  8
gg1
 10
0.060500
 20
0.199200
  0
VERTEX
  8
gg1
 10
0.075500
 20
0.199200
  0
SEQEND
  8
gg1
  0
POLYLINE
  8
gg1
 62
1
 40
0.000000
 41
0.000000
 66
  1
  0
VERTEX
  8
gg1
 10
0.068000
 20
0.191700
  0
VERTEX
  8
gg1
 10
0.068000
 20
0.206700
  0
SEQEND
  8
gg1
  0
POLYLINE
  8
gg1
 62
1
 40
0.000000
 41
0.000000
 66
  1
  0
VERTEX
  8
gg1
 10
0.060500
 20
0.163100
  0
VERTEX
  8
gg1
 10
0.075500
 20
0.163100
  0
SEQEND
  8
gg1
  0
POLYLINE
  8
gg1
 62
1
 40
0.000000
 41
0.000000
 66
  1
  0
VERTEX
  8
gg1
 10
0.068000
 20
0.155600
  0
VERTEX
  8
gg1
 10
0.068000
 20
0.170600
  0
SEQEND
  8
gg1
  0
POLYLINE
  8
gg1
 62
1
 40
0.000000
 41
0.000000
 66
  1
  0
VERTEX
  8
gg1
 10
0.125000
 20
-0.200000
  0
VERTEX
  8
gg1
 10
0.125000
 20
-0.150000
  0
VERTEX
  8
gg1
 10
0.100000
 20
-0.175000
  0
VERTEX
  8
gg1
 10
0.133300
 20
-0.175000
  0
SEQEND
  8
gg1
  0
POLYLINE
  8
gg1
 62
1
 40
0.000000
 41
0.000000
 66
  1
  0
VERTEX
  8
gg1
 10
0.183300
 20
-0.150000
  0
VERTEX
  8
gg1
 10
0.150000
 20
-0.150000
  0
VERTEX
  8
gg1
 10
0.150000
 20
-0.175000
  0
VERTEX
  8
gg1
 10
0.166600
 20
-0.166700
  0
VERTEX
  8
gg1
 10
0.175000
 20
-0.166700
  0
VERTEX
  8
gg1
 10
0.183300
 20
-0.175000
  0
VERTEX
  8
gg1
 10
0.183300
 20
-0.191700
  0
VERTEX
  8
gg1
 10
0.175000
 20
-0.200000
  0
VERTEX
  8
gg1
 10
0.158300
 20
-0.200000
  0
VERTEX
  8
gg1
 10
0.150000
 20
-0.191700
  0
SEQEND
  8
gg1
  0
POLYLINE
  8
gg1
 62
1
 40
0.000000
 41
0.000000
 66
  1
  0
VERTEX
  8
gg1
 10
0.200000
 20
-0.158300
  0
VERTEX
  8
gg1
 10
0.208300
 20
-0.150000
  0
VERTEX
  8
gg1
 10
0.225000
 20
-0.150000
  0
VERTEX
  8
gg1
 10
0.233300
 20
-0.158300
  0
VERTEX
  8
gg1
 10
0.233300
 20
-0.191700
  0
VERTEX
  8
gg1
 10
0.225000
 20
-0.200000
  0
VERTEX
  8
gg1
 10
0.208300
 20
-0.200000
  0
VERTEX
  8
gg1
 10
0.200000
 20
-0.191700
  0
VERTEX
  8
gg1
 10
0.200000
 20
-0.158300
  0
SEQEND
  8
gg1
  0
POLYLINE
  8
gg1
 62
1
 40
0.000000
 41
0.000000
 66
  1
  0
VERTEX
  8
gg1
 10
0.250000
 20
-0.200000
  0
VERTEX
  8
gg1
 10
0.250000
 20
-0.166700
  0
VERTEX
  8
gg1
 10
0.258300
 20
-0.166700
  0
VERTEX
  8
gg1
 10
0.266600
 20
-0.175000
  0
VERTEX
  8
gg1
 10
0.266600
 20
-0.200000
  0
VERTEX
  8
gg1
 10
0.266600
 20
-0.175000
  0
VERTEX
  8
gg1
 10
0.274900
 20
-0.166700
  0
VERTEX
  8
gg1
 10
0.283300
 20
-0.175000
  0
VERTEX
  8
gg1
 10
0.283300
 20
-0.200000
  0
SEQEND
  8
gg1
  0
POLYLINE
  8
gg1
 62
1
 40
0.000000
 41
0.000000
 66
  1
  0
VERTEX
  8
gg1
 10
0.299900
 20
-0.200000
  0
VERTEX
  8
gg1
 10
0.316600
 20
-0.200000
  0
VERTEX
  8
gg1
 10
0.308300
 20
-0.200000
  0
VERTEX
  8
gg1
 10
0.308300
 20
-0.166700
  0
VERTEX
  8
gg1
 10
0.299900
 20
-0.166700
  0
SEQEND
  8
gg1
  0
POLYLINE
  8
gg1
 62
1
 40
0.000000
 41
0.000000
 66
  1
  0
VERTEX
  8
gg1
 10
0.341600
 20
-0.200000
  0
VERTEX
  8
gg1
 10
0.358200
 20
-0.200000
  0
VERTEX
  8
gg1
 10
0.349900
 20
-0.200000
  0
VERTEX
  8
gg1
 10
0.349900
 20
-0.150000
  0
VERTEX
  8
gg1
 10
0.341600
 20
-0.150000
  0
SEQEND
  8
gg1
  0
POLYLINE
  8
gg1
 62
1
 40
0.000000
 41
0.000000
 66
  1
  0
VERTEX
  8
gg1
 10
-0.380000
 20
0.190000
  0
VERTEX
  8
gg1
 10
-0.370000
 20
0.170000
  0
VERTEX
  8
gg1
 10
-0.350000
 20
0.150000
  0
VERTEX
  8
gg1
 10
-0.330000
 20
0.150000
  0
VERTEX
  8
gg1
 10
-0.320000
 20
0.160000
  0
VERTEX
  8
gg1
 10
-0.320000
 20
0.180000
  0
VERTEX
  8
gg1
 10
-0.330000
 20
0.190000
  0
VERTEX
  8
gg1
 10
-0.340000
 20
0.190000
  0
VERTEX
  8
gg1
 10
-0.350000
 20
0.180000
  0
VERTEX
  8
gg1
 10
-0.350000
 20
0.150000
  0
SEQEND
  8
gg1
  0
POLYLINE
  8
gg1
 62
1
 40
0.000000
 41
0.000000
 66
  1
  0
VERTEX
  8
gg1
 10
-0.380000
 20
0.250000
  0
VERTEX
  8
gg1
 10
-0.380000
 20
0.210000
  0
VERTEX
  8
gg1
 10
-0.350000
 20
0.210000
  0
VERTEX
  8
gg1
 10
-0.360000
 20
0.230000
  0
VERTEX
  8
gg1
 10
-0.360000
 20
0.240000
  0
VERTEX
  8
gg1
 10
-0.350000
 20
0.250000
  0
VERTEX
  8
gg1
 10
-0.330000
 20
0.250000
  0
VERTEX
  8
gg1
 10
-0.320000
 20
0.240000
  0
VERTEX
  8
gg1
 10
-0.320000
 20
0.220000
  0
VERTEX
  8
gg1
 10
-0.330000
 20
0.210000
  0
SEQEND
  8
gg1
  0
POLYLINE
  8
gg1
 62
1
 40
0.000000
 41
0.000000
 66
  1
  0
VERTEX
  8
gg1
 10
-0.370000
 20
0.270000
  0
VERTEX
  8
gg1
 10
-0.380000
 20
0.280000
  0
VERTEX
  8
gg1
 10
-0.380000
 20
0.300000
  0
VERTEX
  8
gg1
 10
-0.370000
 20
0.309900
  0
VERTEX
  8
gg1
 10
-0.330000
 20
0.309900
  0
VERTEX
  8
gg1
 10
-0.320000
 20
0.300000
  0
VERTEX
  8
gg1
 10
-0.320000
 20
0.280000
  0
VERTEX
  8
gg1
 10
-0.330000
 20
0.270000
  0
VERTEX
  8
gg1
 10
-0.370000
 20
0.270000
  0
SEQEND
  8
gg1
  0
POLYLINE
  8
gg1
 62
1
 40
0.000000
 41
0.000000
 66
  1
  0
VERTEX
  8
gg1
 10
-0.320000
 20
0.329900
  0
VERTEX
  8
gg1
 10
-0.360000
 20
0.329900
  0
VERTEX
  8
gg1
 10
-0.360000
 20
0.339900
  0
VERTEX
  8
gg1
 10
-0.350000
 20
0.349900
  0
VERTEX
  8
gg1
 10
-0.320000
 20
0.349900
  0
VERTEX
  8
gg1
 10
-0.350000
 20
0.349900
  0
VERTEX
  8
gg1
 10
-0.360000
 20
0.359900
  0
VERTEX
  8
gg1
 10
-0.350000
 20
0.369900
  0
VERTEX
  8
gg1
 10
-0.320000
 20
0.369900
  0
SEQEND
  8
gg1
  0
POLYLINE
  8
gg1
 62
1
 40
0.000000
 41
0.000000
 66
  1
  0
VERTEX
  8
gg1
 10
-0.320000
 20
0.389900
  0
VERTEX
  8
gg1
 10
-0.320000
 20
0.409900
  0
VERTEX
  8
gg1
 10
-0.320000
 20
0.399900
  0
VERTEX
  8
gg1
 10
-0.360000
 20
0.399900
  0
VERTEX
  8
gg1
 10
-0.360000
 20
0.389900
  0
SEQEND
  8
gg1
  0
POLYLINE
  8
gg1
 62
1
 40
0.000000
 41
0.000000
 66
  1
  0
VERTEX
  8
gg1
 10
-0.320000
 20
0.439900
  0
VERTEX
  8
gg1
 10
-0.320000
 20
0.459900
  0
VERTEX
  8
gg1
 10
-0.320000
 20
0.449900
  0
VERTEX
  8
gg1
 10
-0.380000
 20
0.449900
  0
VERTEX
  8
gg1
 10
-0.380000
 20
0.439900
  0
SEQEND
  8
gg1
  0
ENDSEC
  0
EOF
